<svg width="168" height="34" viewBox="0 0 168 34" fill="none" xmlns="http://www.w3.org/2000/svg">
<g clip-path="url(#clip0_891510_272)">
<path d="M22.7043 7.85742C23.5891 9.51088 24.0939 11.3965 24.0939 13.4C24.0939 19.8924 18.8117 25.1746 12.3193 25.1746V26.7981C19.1231 26.7981 24.6375 21.2837 24.6375 14.48C24.6375 12.042 23.9268 9.7712 22.7043 7.85742Z" fill="#89DC65"/>
<path d="M12.3181 1.62354V0C5.51438 0 0 5.51438 0 12.3181C0 14.756 0.710627 17.0269 1.93311 18.9406C1.04835 17.2872 0.543524 15.4016 0.543524 13.3998C0.543524 6.90752 5.82572 1.62529 12.3181 1.62529V1.62354Z" fill="#89DC65"/>
<path d="M12.1771 15.0485C12.6485 14.7108 13.1252 14.322 13.674 14.0019C15.301 13.0468 17.25 13.0239 19.0564 13.2561C19.5788 13.3159 20.1171 13.3686 20.6465 13.3915C18.4953 13.1822 16.564 12.2394 15.104 10.8146C14.7136 10.8111 14.3248 10.8674 13.9554 10.9817C13.4313 11.147 12.9827 11.4285 12.5306 11.7557C12.0593 12.0934 11.5825 12.4821 11.0337 12.8023C9.40667 13.7573 7.45773 13.7803 5.65129 13.5481C5.10425 13.4847 4.53962 13.4302 3.9873 13.4109C6.16491 13.6061 8.12088 14.5525 9.59666 15.9895C9.98895 15.993 10.383 15.9385 10.7541 15.8224C11.2782 15.6571 11.7268 15.3756 12.1788 15.0485H12.1771Z" fill="#89DC65"/>
<path d="M20.7729 13.401C19.6049 13.4942 18.4177 13.3729 17.2761 13.496C16.1398 13.6156 14.9929 13.9428 14.0747 14.6165C13.6226 14.9454 13.2093 15.357 12.752 15.7633C12.5233 15.9674 12.2806 16.1696 12.015 16.3578C11.5664 16.6797 11.0651 16.9154 10.5392 17.0632C11.5523 18.4141 12.205 20.0535 12.351 21.8388C12.7221 17.3411 16.291 13.7722 20.787 13.4028C20.787 13.4028 20.7764 13.4028 20.7711 13.4028L20.7729 13.401Z" fill="#89DC65"/>
<path d="M7.43187 13.3067C8.56817 13.1871 9.71501 12.8599 10.6332 12.1862C11.0852 11.8573 11.4986 11.4457 11.9559 11.0394C12.1846 10.8353 12.4273 10.6331 12.6929 10.4449C13.1397 10.1247 13.6393 9.889 14.1634 9.74129C13.1503 8.39037 12.4994 6.75279 12.3534 4.96741C11.9841 9.44752 8.43976 13.0059 3.96667 13.3999C5.12584 13.312 6.30083 13.428 7.43358 13.3085L7.43187 13.3067Z" fill="#89DC65"/>
</g>
<path d="M46.4147 21H31.3454V20.4863C31.851 20.4537 32.2587 20.3966 32.5686 20.315C32.8947 20.2335 33.1394 20.103 33.3025 19.9236C33.4819 19.7442 33.6042 19.4996 33.6694 19.1897C33.7347 18.8799 33.7673 18.4803 33.7673 17.991V5.56372C33.7673 5.07446 33.7347 4.6749 33.6694 4.36503C33.6205 4.05516 33.5063 3.81053 33.3269 3.63113C33.1475 3.45174 32.8947 3.32127 32.5686 3.23972C32.2587 3.15818 31.851 3.1011 31.3454 3.06848V2.50583H46.1701L46.219 6.51779H45.5585C45.4281 5.88175 45.2813 5.37617 45.1182 5.00107C44.9551 4.60966 44.7186 4.30795 44.4088 4.09593C44.1152 3.88392 43.7156 3.74529 43.2101 3.68006C42.7208 3.61482 42.0848 3.58221 41.3019 3.58221H37.5346C37.1595 3.58221 36.9067 3.63929 36.7762 3.75345C36.6621 3.86761 36.605 4.12855 36.605 4.53627V10.7255H40.8861C41.4569 10.7255 41.9217 10.6928 42.2805 10.6276C42.6393 10.5624 42.9247 10.4401 43.1367 10.2607C43.365 10.065 43.5362 9.79586 43.6504 9.45337C43.7646 9.11089 43.8706 8.65424 43.9684 8.08343H44.6289V14.5662H43.9684C43.8706 13.9791 43.7646 13.5143 43.6504 13.1718C43.5362 12.813 43.3732 12.5439 43.1611 12.3645C42.9491 12.1688 42.6637 12.0383 42.3049 11.9731C41.9461 11.9078 41.4732 11.8752 40.8861 11.8752H36.605V18.7738C36.605 19.0511 36.6213 19.255 36.6539 19.3854C36.6865 19.5159 36.7436 19.6138 36.8252 19.679C36.9556 19.7605 37.2655 19.8339 37.7548 19.8992C38.2603 19.9481 38.8556 19.9725 39.5406 19.9725H40.3234C41.3182 19.9725 42.15 19.9236 42.8187 19.8258C43.5036 19.7279 44.0826 19.5404 44.5555 19.2631C45.0448 18.9859 45.4688 18.6108 45.8276 18.1378C46.1864 17.6649 46.5371 17.0451 46.8795 16.2786H47.6868L46.4147 21ZM57.3817 20.6086C57.8384 20.576 58.1319 20.5189 58.2624 20.4373C58.4092 20.3395 58.4826 20.1683 58.4826 19.9236C58.4826 19.8258 58.4663 19.7361 58.4336 19.6545C58.401 19.573 58.3521 19.4833 58.2869 19.3854L55.7671 15.5202L53.5899 18.9451C53.3779 19.255 53.223 19.4996 53.1251 19.679C53.0436 19.8584 53.0028 19.9889 53.0028 20.0704C53.0028 20.2498 53.0843 20.3884 53.2474 20.4863C53.4105 20.5678 53.7041 20.6086 54.1281 20.6086V21H50.0672V20.6086C50.2955 20.5923 50.4913 20.5597 50.6543 20.5107C50.8174 20.4618 50.9724 20.3884 51.1191 20.2906C51.2659 20.1927 51.4127 20.0622 51.5595 19.8992C51.7226 19.7198 51.902 19.4833 52.0977 19.1897L55.3023 14.5662L52.6603 10.5298C52.432 10.2036 52.2281 9.93448 52.0487 9.72247C51.8857 9.51045 51.7226 9.33921 51.5595 9.20874C51.4127 9.07827 51.2578 8.98857 51.0947 8.93965C50.9316 8.89072 50.744 8.86626 50.532 8.86626H50.2385V8.42592H56.0362V8.86626C55.6122 8.88256 55.3023 8.93149 55.1066 9.01304C54.9272 9.09458 54.8375 9.24951 54.8375 9.47784C54.8375 9.65723 54.9517 9.9671 55.18 10.4074C55.4084 10.8478 55.7264 11.3615 56.1341 11.9486C56.1993 12.0465 56.2646 12.1443 56.3298 12.2422C56.395 12.3237 56.4603 12.4216 56.5255 12.5357C56.656 12.34 56.7864 12.1443 56.9169 11.9486C57.0637 11.7366 57.2186 11.5164 57.3817 11.2881C57.7079 10.8315 57.9525 10.4645 58.1156 10.1873C58.295 9.89371 58.3847 9.65723 58.3847 9.47784C58.3847 9.29844 58.3032 9.15981 58.1401 9.06196C57.9933 8.96411 57.7079 8.89887 57.2839 8.86626V8.42592H61.6872V8.86626C61.2306 8.88256 60.8066 8.99673 60.4152 9.20874C60.0237 9.40445 59.6976 9.698 59.4366 10.0894L57.1126 13.4409L60.6598 18.8962C61.0838 19.5485 61.4671 19.997 61.8096 20.2416C62.1683 20.4863 62.5598 20.6086 62.9838 20.6086V21H57.3817V20.6086ZM76.6173 16.8902C76.3889 17.3305 76.1769 17.7138 75.9812 18.04C75.8018 18.3498 75.6224 18.6352 75.443 18.8962C75.2799 19.1408 75.1087 19.361 74.9293 19.5567C74.7499 19.7524 74.5542 19.9318 74.3422 20.0949C73.3636 20.8777 72.2791 21.2691 71.0886 21.2691C70.3221 21.2691 69.6126 21.1223 68.9603 20.8288C68.3079 20.5189 67.7453 20.0867 67.2723 19.5322C66.8157 18.9777 66.4569 18.3254 66.1959 17.5752C65.935 16.8249 65.8045 15.9932 65.8045 15.0799C65.8045 13.922 66.0002 12.8619 66.3916 11.8997C66.7994 10.9212 67.3783 10.122 68.1285 9.5023C68.6993 9.02934 69.3028 8.6787 69.9388 8.45038C70.5912 8.20575 71.2517 8.08343 71.9203 8.08343C72.5074 8.08343 73.0619 8.16498 73.5838 8.32807C74.1057 8.47484 74.5623 8.6787 74.9538 8.93965C75.3452 9.20059 75.655 9.51045 75.8834 9.86925C76.1117 10.2117 76.2258 10.5787 76.2258 10.9701C76.2258 11.2963 76.0954 11.5817 75.8344 11.8263C75.5898 12.0709 75.2881 12.1933 74.9293 12.1933C74.6031 12.1933 74.3259 12.0709 74.0975 11.8263C73.8692 11.5817 73.698 11.2555 73.5838 10.8478L73.4126 10.2362C73.2821 9.71431 73.0946 9.36367 72.8499 9.18428C72.6216 9.00488 72.2547 8.91518 71.7491 8.91518C71.1783 8.91518 70.6564 9.0375 70.1834 9.28213C69.7268 9.51045 69.3354 9.84478 69.0092 10.2851C68.683 10.7255 68.4221 11.2473 68.2264 11.8508C68.047 12.4542 67.9573 13.1229 67.9573 13.8567C67.9573 14.6396 68.0633 15.3653 68.2753 16.034C68.4873 16.7026 68.7809 17.2734 69.156 17.7464C69.5311 18.2194 69.9796 18.5945 70.5015 18.8717C71.0396 19.1326 71.6268 19.2631 72.2628 19.2631C73.0619 19.2631 73.7551 19.0756 74.3422 18.7005C74.9293 18.309 75.5572 17.6241 76.2258 16.6456L76.6173 16.8902ZM90.9112 16.6211C90.3241 18.1541 89.525 19.312 88.5138 20.0949C87.519 20.8777 86.3448 21.2691 84.9911 21.2691C84.192 21.2691 83.4663 21.1223 82.8139 20.8288C82.1779 20.5352 81.6315 20.1193 81.1749 19.5811C80.7182 19.0429 80.3676 18.3906 80.123 17.6241C79.8783 16.8576 79.756 15.9932 79.756 15.031C79.756 14.0035 79.8946 13.0658 80.1719 12.2177C80.4654 11.3697 80.865 10.6439 81.3706 10.0405C81.8925 9.42076 82.5122 8.93965 83.2298 8.59716C83.9474 8.25468 84.7383 8.08343 85.6027 8.08343C86.3366 8.08343 87.0053 8.22206 87.6087 8.49931C88.2284 8.77656 88.7503 9.16797 89.1743 9.67354C89.3537 9.90186 89.5005 10.1302 89.6147 10.3585C89.7451 10.5868 89.8512 10.8396 89.9327 11.1169C90.0305 11.3941 90.1121 11.704 90.1773 12.0465C90.2426 12.389 90.3078 12.7804 90.373 13.2207H81.7865C81.8191 14.1177 81.8925 14.8597 82.0066 15.4469C82.1371 16.0177 82.341 16.5722 82.6182 17.1104C83.4173 18.6108 84.5916 19.361 86.1409 19.361C87.0379 19.361 87.8126 19.1408 88.4649 18.7005C89.1336 18.2601 89.8022 17.5099 90.4709 16.4498L90.9112 16.6211ZM87.5353 12.2911C87.3559 11.0843 87.0623 10.2525 86.6546 9.79586C86.2632 9.3229 85.6435 9.08642 84.7954 9.08642C83.9311 9.08642 83.2542 9.33921 82.765 9.84478C82.292 10.3504 81.9822 11.1658 81.8354 12.2911H87.5353ZM93.5362 3.14187C94.0255 3.02771 94.4577 2.92985 94.8328 2.84831C95.2242 2.75046 95.5912 2.6526 95.9336 2.55475C96.2924 2.4569 96.6349 2.35905 96.9611 2.26119C97.2873 2.16334 97.6298 2.04918 97.9886 1.91871L98.1109 1.9921V18.6515C98.1109 19.0429 98.1353 19.361 98.1843 19.6056C98.2332 19.8339 98.331 20.0215 98.4778 20.1683C98.6246 20.2987 98.8285 20.3966 99.0894 20.4618C99.3666 20.527 99.7254 20.576 100.166 20.6086V21H93.6096V20.6086C94.05 20.5597 94.4088 20.5026 94.686 20.4373C94.9633 20.3558 95.1834 20.2416 95.3465 20.0949C95.5096 19.9318 95.6156 19.7279 95.6645 19.4833C95.7298 19.2387 95.7624 18.9288 95.7624 18.5537V5.2457C95.7624 4.59335 95.6727 4.15301 95.4933 3.92469C95.3302 3.68006 95.0285 3.55774 94.5882 3.55774C94.4577 3.55774 94.3109 3.5659 94.1478 3.58221C94.001 3.58221 93.8543 3.59036 93.7075 3.60667H93.5362V3.14187ZM102.864 3.14187C103.353 3.02771 103.786 2.92985 104.161 2.84831C104.552 2.75046 104.919 2.6526 105.262 2.55475C105.62 2.4569 105.963 2.35905 106.289 2.26119C106.615 2.16334 106.958 2.04918 107.316 1.91871L107.439 1.9921V18.6515C107.439 19.0429 107.463 19.361 107.512 19.6056C107.561 19.8339 107.659 20.0215 107.806 20.1683C107.953 20.2987 108.156 20.3966 108.417 20.4618C108.695 20.527 109.053 20.576 109.494 20.6086V21H102.938V20.6086C103.378 20.5597 103.737 20.5026 104.014 20.4373C104.291 20.3558 104.511 20.2416 104.674 20.0949C104.838 19.9318 104.944 19.7279 104.992 19.4833C105.058 19.2387 105.09 18.9288 105.09 18.5537V5.2457C105.09 4.59335 105.001 4.15301 104.821 3.92469C104.658 3.68006 104.356 3.55774 103.916 3.55774C103.786 3.55774 103.639 3.5659 103.476 3.58221C103.329 3.58221 103.182 3.59036 103.035 3.60667H102.864V3.14187ZM123.519 16.6211C122.931 18.1541 122.132 19.312 121.121 20.0949C120.126 20.8777 118.952 21.2691 117.598 21.2691C116.799 21.2691 116.074 21.1223 115.421 20.8288C114.785 20.5352 114.239 20.1193 113.782 19.5811C113.326 19.0429 112.975 18.3906 112.73 17.6241C112.486 16.8576 112.363 15.9932 112.363 15.031C112.363 14.0035 112.502 13.0658 112.779 12.2177C113.073 11.3697 113.472 10.6439 113.978 10.0405C114.5 9.42076 115.12 8.93965 115.837 8.59716C116.555 8.25468 117.346 8.08343 118.21 8.08343C118.944 8.08343 119.613 8.22206 120.216 8.49931C120.836 8.77656 121.358 9.16797 121.782 9.67354C121.961 9.90186 122.108 10.1302 122.222 10.3585C122.353 10.5868 122.459 10.8396 122.54 11.1169C122.638 11.3941 122.719 11.704 122.785 12.0465C122.85 12.389 122.915 12.7804 122.98 13.2207H114.394C114.426 14.1177 114.5 14.8597 114.614 15.4469C114.744 16.0177 114.948 16.5722 115.226 17.1104C116.025 18.6108 117.199 19.361 118.748 19.361C119.645 19.361 120.42 19.1408 121.072 18.7005C121.741 18.2601 122.41 17.5099 123.078 16.4498L123.519 16.6211ZM120.143 12.2911C119.963 11.0843 119.67 10.2525 119.262 9.79586C118.871 9.3229 118.251 9.08642 117.403 9.08642C116.538 9.08642 115.862 9.33921 115.372 9.84478C114.899 10.3504 114.59 11.1658 114.443 12.2911H120.143ZM126.07 9.40445C126.837 9.19243 127.497 8.99673 128.052 8.81733C128.623 8.63793 129.242 8.41776 129.911 8.15682L130.131 8.20575V10.4319C130.604 9.99156 131.02 9.62462 131.379 9.33106C131.738 9.0375 132.064 8.80918 132.357 8.64609C132.667 8.46669 132.961 8.34437 133.238 8.27914C133.532 8.1976 133.841 8.15682 134.168 8.15682C135.195 8.15682 136.002 8.52377 136.589 9.25767C137.177 9.99156 137.47 11.019 137.47 12.34V18.7494C137.47 19.418 137.584 19.8747 137.813 20.1193C138.041 20.364 138.489 20.527 139.158 20.6086V21H133.36V20.6086C133.703 20.576 133.988 20.5189 134.216 20.4373C134.445 20.3558 134.624 20.2253 134.755 20.0459C134.901 19.8665 134.999 19.6301 135.048 19.3365C135.097 19.0429 135.122 18.676 135.122 18.2357V12.389C135.122 10.595 134.445 9.698 133.091 9.698C132.863 9.698 132.643 9.72247 132.431 9.77139C132.219 9.82032 131.998 9.90186 131.77 10.016C131.558 10.1302 131.322 10.2933 131.061 10.5053C130.816 10.7173 130.523 10.9782 130.18 11.2881V19.1408C130.18 19.6464 130.311 20.0052 130.571 20.2172C130.832 20.4129 131.322 20.5434 132.039 20.6086V21H126.119V20.6086C126.478 20.576 126.763 20.527 126.975 20.4618C127.204 20.3803 127.383 20.2579 127.514 20.0949C127.644 19.9318 127.734 19.7279 127.783 19.4833C127.832 19.2223 127.856 18.8962 127.856 18.5048V11.5572C127.856 10.8722 127.783 10.4074 127.636 10.1628C127.489 9.90186 127.22 9.77139 126.829 9.77139C126.535 9.77139 126.282 9.81217 126.07 9.89371V9.40445ZM152.645 16.8902C152.416 17.3305 152.204 17.7138 152.009 18.04C151.829 18.3498 151.65 18.6352 151.47 18.8962C151.307 19.1408 151.136 19.361 150.957 19.5567C150.777 19.7524 150.582 19.9318 150.37 20.0949C149.391 20.8777 148.307 21.2691 147.116 21.2691C146.35 21.2691 145.64 21.1223 144.988 20.8288C144.335 20.5189 143.773 20.0867 143.3 19.5322C142.843 18.9777 142.484 18.3254 142.223 17.5752C141.962 16.8249 141.832 15.9932 141.832 15.0799C141.832 13.922 142.028 12.8619 142.419 11.8997C142.827 10.9212 143.406 10.122 144.156 9.5023C144.727 9.02934 145.33 8.6787 145.966 8.45038C146.619 8.20575 147.279 8.08343 147.948 8.08343C148.535 8.08343 149.089 8.16498 149.611 8.32807C150.133 8.47484 150.59 8.6787 150.981 8.93965C151.373 9.20059 151.683 9.51045 151.911 9.86925C152.139 10.2117 152.253 10.5787 152.253 10.9701C152.253 11.2963 152.123 11.5817 151.862 11.8263C151.617 12.0709 151.316 12.1933 150.957 12.1933C150.631 12.1933 150.353 12.0709 150.125 11.8263C149.897 11.5817 149.725 11.2555 149.611 10.8478L149.44 10.2362C149.31 9.71431 149.122 9.36367 148.877 9.18428C148.649 9.00488 148.282 8.91518 147.777 8.91518C147.206 8.91518 146.684 9.0375 146.211 9.28213C145.754 9.51045 145.363 9.84478 145.037 10.2851C144.71 10.7255 144.45 11.2473 144.254 11.8508C144.074 12.4542 143.985 13.1229 143.985 13.8567C143.985 14.6396 144.091 15.3653 144.303 16.034C144.515 16.7026 144.808 17.2734 145.183 17.7464C145.559 18.2194 146.007 18.5945 146.529 18.8717C147.067 19.1326 147.654 19.2631 148.29 19.2631C149.089 19.2631 149.783 19.0756 150.37 18.7005C150.957 18.309 151.585 17.6241 152.253 16.6456L152.645 16.8902ZM166.939 16.6211C166.352 18.1541 165.552 19.312 164.541 20.0949C163.546 20.8777 162.372 21.2691 161.019 21.2691C160.219 21.2691 159.494 21.1223 158.841 20.8288C158.205 20.5352 157.659 20.1193 157.202 19.5811C156.746 19.0429 156.395 18.3906 156.15 17.6241C155.906 16.8576 155.783 15.9932 155.783 15.031C155.783 14.0035 155.922 13.0658 156.199 12.2177C156.493 11.3697 156.892 10.6439 157.398 10.0405C157.92 9.42076 158.54 8.93965 159.257 8.59716C159.975 8.25468 160.766 8.08343 161.63 8.08343C162.364 8.08343 163.033 8.22206 163.636 8.49931C164.256 8.77656 164.778 9.16797 165.202 9.67354C165.381 9.90186 165.528 10.1302 165.642 10.3585C165.773 10.5868 165.879 10.8396 165.96 11.1169C166.058 11.3941 166.14 11.704 166.205 12.0465C166.27 12.389 166.335 12.7804 166.4 13.2207H157.814C157.847 14.1177 157.92 14.8597 158.034 15.4469C158.165 16.0177 158.368 16.5722 158.646 17.1104C159.445 18.6108 160.619 19.361 162.168 19.361C163.065 19.361 163.84 19.1408 164.492 18.7005C165.161 18.2601 165.83 17.5099 166.498 16.4498L166.939 16.6211ZM163.563 12.2911C163.383 11.0843 163.09 10.2525 162.682 9.79586C162.291 9.3229 161.671 9.08642 160.823 9.08642C159.959 9.08642 159.282 9.33921 158.792 9.84478C158.319 10.3504 158.01 11.1658 157.863 12.2911H163.563Z" fill="#4A4F55"/>
<path d="M76.9917 25.3176H77.6798V29.7868H80.2832V30.4465H76.9917V25.3176ZM82.6637 30.4465L84.9054 25.1048H84.9479L87.1825 30.4465H86.3951L84.7209 26.1831L85.2104 25.8639L83.3376 30.4465H82.6637ZM83.9761 28.5028H85.8843L86.1113 29.0987H83.7774L83.9761 28.5028ZM90.4247 28.6305C90.4247 28.8622 90.4791 29.0703 90.5879 29.2548C90.7014 29.4345 90.8503 29.5763 91.0348 29.6804C91.2192 29.7844 91.4273 29.8365 91.659 29.8365C91.9002 29.8365 92.1154 29.7844 92.3046 29.6804C92.4938 29.5763 92.6427 29.4345 92.7515 29.2548C92.8603 29.0703 92.9147 28.8622 92.9147 28.6305V25.3176H93.5886V28.6518C93.5886 29.0254 93.5011 29.3517 93.3261 29.6307C93.1558 29.9098 92.9241 30.1249 92.6309 30.2763C92.3424 30.4276 92.0185 30.5033 91.659 30.5033C91.2996 30.5033 90.9757 30.4276 90.6872 30.2763C90.3987 30.1249 90.1693 29.9098 89.9991 29.6307C89.8288 29.3517 89.7437 29.0254 89.7437 28.6518V25.3176H90.4247V28.6305ZM101.207 30.6097L97.2415 26.5875L97.4401 26.6371L97.4543 30.4465H96.7662V25.1616H96.8017L100.725 29.198L100.561 29.1625L100.547 25.3176H101.228V30.6097H101.207ZM104.473 30.4465V25.3176H105.871C106.377 25.3176 106.807 25.3957 107.162 25.5517C107.521 25.7078 107.81 25.9135 108.027 26.1689C108.245 26.4243 108.403 26.7081 108.502 27.0202C108.606 27.3276 108.658 27.635 108.658 27.9424C108.658 28.3302 108.59 28.6778 108.453 28.9852C108.32 29.2926 108.136 29.5551 107.899 29.7726C107.663 29.9902 107.391 30.158 107.084 30.2763C106.781 30.3898 106.459 30.4465 106.119 30.4465H104.473ZM105.161 29.7868H105.984C106.268 29.7868 106.528 29.7442 106.764 29.6591C107.006 29.574 107.214 29.451 107.389 29.2902C107.568 29.1294 107.708 28.9332 107.807 28.7014C107.907 28.465 107.956 28.1978 107.956 27.8998C107.956 27.583 107.904 27.3063 107.8 27.0698C107.696 26.8286 107.554 26.6277 107.374 26.4669C107.195 26.3061 106.991 26.1855 106.764 26.1051C106.537 26.0199 106.299 25.9774 106.048 25.9774H105.161V29.7868ZM112.946 25.3176C113.206 25.3176 113.445 25.3531 113.663 25.4241C113.885 25.4903 114.076 25.5919 114.237 25.7291C114.403 25.8615 114.53 26.027 114.62 26.2257C114.715 26.4196 114.762 26.6466 114.762 26.9067C114.762 27.11 114.731 27.3087 114.67 27.5026C114.613 27.6965 114.516 27.8738 114.379 28.0346C114.242 28.1907 114.062 28.3184 113.84 28.4177C113.622 28.5123 113.353 28.5596 113.031 28.5596H112.272V30.4465H111.584V25.3176H112.946ZM113.017 27.8998C113.22 27.8998 113.388 27.8691 113.521 27.8076C113.658 27.7461 113.764 27.6681 113.84 27.5735C113.916 27.4742 113.97 27.3678 114.003 27.2543C114.036 27.1408 114.053 27.0344 114.053 26.9351C114.053 26.831 114.034 26.7246 113.996 26.6158C113.963 26.5023 113.906 26.3983 113.826 26.3037C113.75 26.2091 113.648 26.1311 113.521 26.0696C113.398 26.0081 113.246 25.9774 113.067 25.9774H112.272V27.8998H113.017ZM113.861 28.29L115.202 30.4465H114.408L113.045 28.3113L113.861 28.29ZM119.115 28.7369L117.214 25.3176H118.058L119.583 28.1481L119.37 28.1623L120.881 25.3176H121.719L119.803 28.7369V30.4465H119.115V28.7369Z" fill="#89DC65"/>
<defs>
<clipPath id="clip0_891510_272">
<rect width="24.3659" height="27" fill="white"/>
</clipPath>
</defs>
</svg>
